<svg version="1.1" id="Layer_1" xmlns="http://www.w3.org/2000/svg" xmlns:xlink="http://www.w3.org/1999/xlink" x="0px" y="0px"
	 width="210.5px" height="113.3px" viewBox="0 0 210.5 113.3" style="enable-background:new 0 0 210.5 113.3;" xml:space="preserve"
	>
<style type="text/css">
	.st0{fill:#FFFFFF;}
	.st1{fill:#C9C1C5;}
	.st2{fill-rule:evenodd;clip-rule:evenodd;fill:#FF6365;}
</style>

	<path class="st0" d="M89.4,19.1c2.8,7.2,4.5,14.7,5.1,22.3c0.6,7.7,0.2,15.3-1.3,22.9c-0.4,1.7-0.8,3.6-1.4,5.5
		c-0.6,2-1.3,4.2-2.2,6.6c-0.9,2.5-1.9,4.8-3.1,6.9c-1.1,2.2-2.4,4.2-4,6c-1.5,1.8-3.1,3.3-4.8,4.3c-1.7,1-3.6,1.5-5.7,1.4
		c-2.1-0.1-4.3-0.8-6.5-2.3c-1.6-1-3-2.3-4.2-3.9c-1.2-1.6-2.3-3.3-3.1-5.3c-0.8-2-1.5-3.8-1.9-5.4c-0.5-1.7-1-3.6-1.5-5.7
		c-0.3-1.4-0.5-2.7-0.8-4.1s-0.5-2.8-0.7-4.5c-0.2-1.7-0.4-3-0.5-3.9c-0.1-0.9-0.3-2.5-0.5-4.6c-0.2-2.1-0.4-3.4-0.4-4.1
		c-1.4,3.2-3.2,7.6-5.4,13.3c-2.2,5.7-4.3,10.9-6.3,15.5c-2,4.7-4.2,8.9-6.6,12.7c-0.8,1.2-1.5,2.2-2,3s-1.3,1.7-2.2,2.8
		c-0.9,1.1-1.9,2-2.9,2.6c-1,0.6-2.1,1-3.3,1.2c-1.8,0.2-3.3-0.2-4.6-1.4c-1.3-1.1-2.2-2.6-2.8-4.3c-0.4-1.5-0.7-3.3-0.8-5.2
		c-0.1-2-0.1-3.6,0.1-4.9c0.1-1.3,0.4-3.1,0.7-5.3c0.7-5.1,2.3-12.8,4.7-22.8c3.1-12.8,5-20.5,5.5-23.2c0.1-0.3,0.3-1.1,0.6-2.6
		c0.3-1.5,0.5-2.5,0.6-3c0.1-0.5,0.2-1.4,0.5-2.7c0.2-1.3,0.4-2.4,0.4-3.1c0-0.7,0.1-1.6,0-2.7c0-1-0.1-2-0.2-2.9
		c-0.8-4.8-4.3-4.5-10.4,0.9c-2.3,2-4.4,4.3-6.5,6.7C3,36.4,0.8,43.1,4.8,46.3c0.5,0.4,0.7,0.8,0.6,1.4c-0.1,0.6-0.4,1-0.9,1.2
		c-0.5,0.2-1,0.2-1.5-0.2c-4-3.2-4-8.5,0.1-16c2.1-3.8,4.7-7.3,7.6-10.7c3-3.3,6.1-6.1,9.5-8.2c6.4-4,9.9-2.2,10.6,5.6
		c0.4,4.4-0.1,9.7-1.4,16.2c-0.6,3.1-2.3,10.3-5.1,21.4c-2.8,11.2-4.6,19.8-5.3,26c0,0.1-0.1,0.7-0.3,1.9c-0.2,1.2-0.3,2-0.3,2.5
		c0,0.4-0.1,1.2-0.2,2.4c-0.1,1.1-0.1,2,0,2.7c0.1,0.6,0.2,1.4,0.3,2.3c0.1,0.9,0.3,1.6,0.7,2.3c0.3,0.6,0.7,1.2,1.2,1.7
		c0.5,0.5,1,0.9,1.6,1c0.6,0.2,1.1,0.1,1.7-0.1c0.6-0.2,1.1-0.4,1.6-0.7c0.5-0.3,1-0.7,1.6-1.4c0.6-0.6,1.1-1.2,1.5-1.7
		c0.4-0.5,0.9-1.1,1.4-1.9c0.5-0.8,0.8-1.3,1.1-1.7c0.2-0.4,0.5-0.8,0.9-1.4c0-0.1,0.1-0.2,0.1-0.3c2.4-4.1,4.7-8.8,6.9-14.1
		c2.2-5.3,4.4-10.8,6.6-16.6c2.2-5.7,4.3-10.5,6.2-14.4c0.3-0.7,0.8-1,1.6-0.9c0.8,0,1.2,0.5,1.3,1.3c0.3,1.9,0.6,4.8,1,8.7
		c0.4,3.9,0.8,7.3,1.2,10.3c0.4,3,0.9,5.9,1.6,8.5c0.4,1.7,0.8,3.4,1.4,5s1.2,3.4,2.2,5.3c0.9,2,2,3.6,3.1,5c1.1,1.3,2.5,2.3,4.2,3
		c1.7,0.7,3.5,0.8,5.4,0.3c0.9-0.2,1.8-0.6,2.7-1.3c0.9-0.6,1.7-1.4,2.5-2.3c0.8-0.9,1.4-1.8,1.9-2.5c0.5-0.8,1.1-1.7,1.7-2.7
		c2.9-4.9,5-10.7,6.5-17.5c1.7-7.5,2.2-15.1,1.7-22.8C91,35,89.4,27.6,86.6,20.4c-0.2-0.6-0.1-1.1,0.2-1.6c0.4-0.4,0.8-0.6,1.4-0.6
		C88.8,18.2,89.2,18.5,89.4,19.1z"/>
	<path class="st0" d="M119.7,55.9c0.4-0.1,0.8,0,1.2,0.3c0.4,0.2,0.6,0.6,0.6,1c0.1,0.4,0,0.8-0.3,1.2c-0.7,1-1.5,2-2.4,3.1
		c-0.9,1.1-2.1,2.5-3.7,4.1c-1.6,1.7-3.3,3-5,4s-3.4,1.6-4.8,1.6c-0.9,0-1.8-0.2-2.6-0.6c-1-0.6-1.6-1.7-1.8-3.3
		c-0.2-1.6-0.1-3.5,0.3-5.7c0.4-2.2,0.9-4.1,1.4-5.7c0.5-1.7,1-3.3,1.6-5c0.1-0.4,0.4-0.7,0.8-0.9c0.4-0.2,0.8-0.2,1.2-0.1
		c0.3,0.1,0.5,0.2,0.7,0.5c0.2,0.2,0.3,0.5,0.3,0.7c0,0.2,0,0.5-0.1,0.8c-0.9,2.6-1.7,5.1-2.3,7.6c-0.6,2.5-0.9,4.4-1,5.8
		c0,1.4,0.1,2.2,0.4,2.6c1.5,0.8,3.6-0.1,6.5-2.5c2.9-2.5,5.6-5.4,8-8.7C118.9,56.2,119.2,56,119.7,55.9z M105.2,44.9
		c-0.7,0-1.2-0.4-1.5-1.1c-0.2-0.4-0.2-0.8,0-1.2c0.2-0.4,0.5-0.6,0.9-0.8c0.1,0,0.2,0,0.4-0.1c0.2-0.1,0.4-0.2,0.6-0.3
		c0.2-0.1,0.4-0.2,0.6-0.3c0.2-0.1,0.5-0.2,0.8-0.3l1.2,2.9c-1.4,0.6-2.3,0.9-2.6,1C105.5,44.8,105.3,44.9,105.2,44.9z"/>
	<path class="st0" d="M140.4,67.7c0.4,0,0.8,0.2,1.1,0.5c0.3,0.3,0.4,0.7,0.4,1.1c0,0.4-0.2,0.8-0.5,1.1c-1.5,1.4-3,2.1-4.6,2.1
		c-0.8,0-1.4-0.2-2-0.7c-0.6-0.4-1.1-1.1-1.5-2.1c-0.4-1-0.6-1.9-0.7-2.7s-0.3-2.1-0.4-3.7c-0.3-2.9-0.6-4.6-0.9-5.1
		c-1.1,0.3-3.7,3.1-8,8.2c-1.5,1.9-2.7,3.2-3.4,4s-1.4,1.3-1.9,1.6c-0.5,0.2-1,0.2-1.5-0.2c-0.5-0.4-0.7-0.8-0.7-1.4
		c0.3-2.7,1.8-9.8,4.7-21.2c0.1-0.4,0.4-0.7,0.7-0.9c0.4-0.2,0.7-0.3,1.2-0.2c0.4,0.1,0.7,0.3,1,0.7c0.2,0.4,0.3,0.8,0.2,1.2
		c-1.4,5.4-2.7,10.7-3.8,16c0.3-0.4,0.7-0.9,1.2-1.5c2.9-3.5,5.1-6,6.7-7.5c1.6-1.5,3-2.1,4.2-1.9c0.6,0.1,1.1,0.3,1.6,0.7
		c0.4,0.4,0.7,1,1,1.9c0.2,0.9,0.4,1.7,0.5,2.3c0.1,0.7,0.2,1.7,0.4,3c0.4,3.8,0.8,5.9,1.3,6.3c0.3,0.2,0.7,0.1,1.3-0.2
		c0.6-0.3,1.1-0.6,1.5-1C139.6,67.8,140,67.7,140.4,67.7z"/>
	<path class="st0" d="M162.6,58.7c0.4,0,0.8,0.1,1.1,0.4c0.3,0.3,0.5,0.7,0.5,1.1c0,0.4-0.1,0.8-0.4,1.1c-0.7,0.7-1.5,1.5-2.4,2.3
		c-0.9,0.9-2.3,2-4.1,3.4c-1.8,1.4-3.7,2.6-5.6,3.5c-2,0.9-3.7,1.4-5.3,1.4s-3-0.5-4.1-1.5c-1.2-1.1-1.9-2.5-2.2-4.3
		c-0.3-1.8-0.2-3.6,0.3-5.4c0.5-1.8,1.2-3.7,2.1-5.5c1.2-2.3,2.7-4.2,4.6-5.7s3.6-2,5.4-1.6c1.8,0.5,2.8,1.4,3,2.8
		c0.1,1-0.2,2.1-1.1,3.3c-0.8,1.2-2,2.5-3.5,3.7c-1.5,1.2-2.8,2.2-4.1,3.1c-1.2,0.9-2.5,1.7-3.8,2.5c-0.2,2.2,0.2,3.9,1.3,4.9
		c0.7,0.7,1.6,0.9,2.7,0.7c1.2-0.2,2.4-0.6,3.7-1.3c1.3-0.6,2.6-1.5,4-2.5c1.4-1,2.7-2,3.8-3c1.1-1,2.2-1.9,3-2.9
		C161.8,58.9,162.1,58.7,162.6,58.7z M145,56.8c-0.4,0.7-0.7,1.4-1.1,2.2c2.3-1.6,4.3-3.2,5.9-4.6s2.4-2.5,2.4-3.1
		c0,0-0.2-0.1-0.7-0.2c-0.1,0-0.3-0.1-0.4-0.1c-0.9,0-1.9,0.5-3,1.6C147,53.7,146,55.1,145,56.8z"/>
	<path class="st0" d="M177.7,49.8c0.4,0,0.8,0.2,1.1,0.6c0.3,0.3,0.4,0.7,0.3,1.1c0,0.4-0.2,0.8-0.6,1c-0.4,0.3-0.7,0.4-1.1,0.3
		c-2-0.3-4.1,0.6-6.1,2.7c-2,2-3.8,4.7-5.3,7.9c-1.5,3.2-2.8,6.7-3.9,10.5c-0.2,0.7-0.6,1.1-1.3,1.1c0,0-0.1,0.1-0.1,0.1
		c-0.7,0-1.1-0.3-1.4-0.9c-1.1-2.2,0.8-12.5,5.4-31.1c0.1-0.4,0.3-0.7,0.7-0.9c0.4-0.2,0.8-0.3,1.2-0.2c0.4,0.1,0.7,0.3,0.9,0.7
		c0.2,0.4,0.3,0.7,0.2,1.2c-1.5,6.2-2.9,12-4,17.3c1.9-3.8,4.1-6.7,6.5-8.8C172.5,50.4,175,49.5,177.7,49.8z"/>
	<path class="st0" d="M210.4,59.9c0.1,0.3,0.1,0.6,0.1,0.8c0,0.2-0.2,0.5-0.3,0.7c-0.2,0.2-0.4,0.4-0.7,0.5c-2.2,0.8-4.4,1.8-6.6,3
		c-0.3,6.3-1.5,12.1-3.5,17.4c-1.8,4.6-4.2,9.2-7.2,13.7c-3,4.6-6.2,8.4-9.5,11.6c-3.3,3.1-6.2,5-8.7,5.6c-0.6,0.1-1.1,0.2-1.6,0.2
		c-1.2,0-2.3-0.4-3.2-1.2c-2-1.7-2.6-4.5-1.8-8.4c0.7-3.7,2.6-8.1,5.6-13.1c3-5,6.9-10.1,11.8-15.2c4.8-5.1,9.9-9.2,15.1-12.3
		c0.1-4.5-0.3-7.8-1.1-9.8c-0.7,0.7-2.1,2.4-4.2,5.1c-2.1,2.6-3.7,4.6-5,6c-1.2,1.4-2.5,2.7-3.9,3.8c-1.3,1.1-2.5,1.7-3.4,1.8
		c-0.8,0.1-1.6-0.1-2.2-0.6c-2-1.7-1.9-5.9,0.4-12.7c1.1-3.2,2.3-6.2,3.6-9c0.2-0.4,0.5-0.6,0.9-0.8c0.4-0.2,0.8-0.1,1.2,0
		c0.4,0.2,0.6,0.5,0.8,0.9c0.2,0.4,0.1,0.8-0.1,1.2c-1.9,4.1-3.4,8-4.4,11.6c-1,3.6-1.1,5.7-0.4,6.2c1.1,0,4.4-3.5,10-10.5
		c2.2-2.7,3.7-4.5,4.6-5.4s1.6-1.3,2.2-1.4c0.5,0,1,0.1,1.3,0.4c1.8,1.5,2.7,5.3,2.7,11.2c1.9-1,3.7-1.8,5.5-2.4
		c0.4-0.1,0.8-0.1,1.2,0.1C210,59.2,210.3,59.5,210.4,59.9z M196.5,81.1c1.7-4.3,2.7-9,3.2-14.3c-4.8,3.1-9.3,7-13.7,11.7
		c-4.4,4.7-7.9,9.3-10.6,13.9c-2.7,4.6-4.4,8.5-5,11.9c-0.6,2.8-0.3,4.6,0.8,5.5c0.4,0.4,1.1,0.5,2,0.3c2-0.5,4.5-2.1,7.5-5
		c2.9-2.8,5.9-6.4,8.9-10.8C192.5,89.9,194.8,85.5,196.5,81.1z"/>

	<path class="st1" d="M98.8,88.1c0,1.1-0.8,2.2-2.4,2.2h-2.5v-7.7H96c1.5,0,2.3,0.9,2.3,2c0,0.6-0.3,1.2-0.7,1.5
		C98.3,86.5,98.8,87.2,98.8,88.1z M95,83.6v2.2h1c0.8,0,1.3-0.5,1.3-1.1c0-0.6-0.5-1.1-1.3-1.1H95z M97.7,88.1
		c0-0.7-0.5-1.2-1.4-1.2H95v2.4h1.4C97.2,89.3,97.7,88.7,97.7,88.1z"/>
	<path class="st1" d="M106.1,87.6v2.7h-1v-2.7l-2.6-5h1.2l2,3.9l2-3.9h1.2L106.1,87.6z"/>
	<path class="st1" d="M124.2,88.7h-3.3l-0.7,1.6h-1.2l3.4-7.8h0.2l3.4,7.8h-1.1L124.2,88.7z M123.8,87.7l-1.2-3l-1.2,3H123.8z"/>
	<path class="st1" d="M135.2,82.6l-3.3,7.8h-0.2l-3.3-7.8h1.1l2.2,5.6l2.2-5.6H135.2z"/>
	<path class="st1" d="M142.6,88.7h-3.3l-0.7,1.6h-1.2l3.4-7.8h0.2l3.4,7.8h-1.1L142.6,88.7z M142.2,87.7l-1.2-3l-1.2,3H142.2z"/>
	<path class="st1" d="M154.5,86.4c0,2.1-1.4,3.9-3.9,3.9h-2v-7.7h2C153.1,82.6,154.5,84.3,154.5,86.4z M153.4,86.4
		c0-1.6-1-2.8-2.8-2.8h-1v5.7h1C152.4,89.3,153.4,88,153.4,86.4z"/>
	<path class="st1" d="M163.2,88.7h-3.3l-0.7,1.6H158l3.4-7.8h0.2l3.4,7.8h-1.1L163.2,88.7z M162.7,87.7l-1.2-3l-1.2,3H162.7z"/>

	<path class="st2" d="M147.9,3c-1.1,0.7-3.3,1.3-4.2,2.2C143.3,3.5,146.7,2.1,147.9,3z"/>
	<path class="st2" d="M148.9,10.7c-2.5-0.8-3.6,1.4-4.8,2.1C143.3,10.2,147.9,8.5,148.9,10.7z"/>
	<path class="st2" d="M153.2,20.6c-1.5,0.9-2.7,1.9-3,3.3c-1.4-1.3,0.7-2.9,2-3.9C152.5,20.2,153,19.9,153.2,20.6z"/>
	<path class="st2" d="M143.5,20.2c-0.7,0.4-1.1,0.1-1.5-0.2c-1.9,0.4-1.7,2-1.4,2.9c-0.2-0.1-0.5,0-0.8,0.2c-1.1-2,0.8-4.7,2.8-4.1
		C142.9,19.1,143.5,19.6,143.5,20.2z"/>
	<path class="st2" d="M139.3,10.6c0.1,0.5,0,0.3,0.3,0.7c-1.3,0.3-2.9-0.3-4,1.4C135.3,10.5,137.8,9.9,139.3,10.6z"/>
	<path class="st2" d="M135.3,6c0.1,0.4-0.2,0.6-0.1,1.1c-1.2-0.4-3.1-0.2-3.9,1.2C130.7,6,134,5,135.3,6z"/>
	<path class="st2" d="M131.6,13.3c-1.2,0.2-2.6,1.6-1.7,1.8c0,0.5-0.7,0.2-0.9,0.4C128.2,14,130.7,11.6,131.6,13.3z"/>
	<path class="st2" d="M135,21.2c-0.9,1.3-2.6,2.2-2.6,3.8C131,23.1,133.7,21,135,21.2z"/>
	<path class="st2" d="M124.1,15.6c-0.5,0.2-1,0.3-1.3,0.2c-0.8,0.6-0.3,1.8-1.3,2.3C120.1,16.7,122.7,13.5,124.1,15.6z"/>
	<path class="st2" d="M124.6,24.1c-0.5,0.9-3.1,0.7-2.7,2.4c-0.7,0.1-0.2-0.6-0.7-1.1C121.8,24.3,123.5,23.9,124.6,24.1z"/>
	<path class="st2" d="M116.7,21.7c-0.6,0.5-1.8,1.2-2.1,2.1C113.4,22,115.4,21,116.7,21.7z"/>
	<path class="st2" d="M116.5,29.1c0.1,0.2,0,0.3,0,0.5c-1.1,0-1.9,0.1-1.7,1.3c-1,0-0.9-1-0.8-1.8C115.1,28.5,115.7,29,116.5,29.1z"
		/>
	<path class="st2" d="M106.9,27c-0.3-0.6,0-1-0.3-1.6c0.7-0.8,2.4-1.2,2.9,0.2c-0.7,0.5-0.9-0.6-1.6,0
		C107.2,25.9,107.7,26.7,106.9,27z"/>
	<path class="st2" d="M166.7,12.2c-3.1-2.4-7.4-1.7-12.1-0.1c0.1,1,0.8,2.1,0.4,2.9c1.7,0.9,3.6,1.7,4.7,3.5
		c2.4,3.9-0.9,7.3-3.8,9.6c-1.1,0-3.2,0.7-4.4-0.2c-0.7,2.8-5.1,5.3-8.1,4.2c0.1,3.8-5,5.8-7.8,3.6c-3.7,2.4-8,2.1-9.7-1.1
		c-0.5,0.5-0.4-0.2-0.9-0.3c-1.1-0.4-2.8-0.4-3.6-1.8c-0.2,0.7-1.4,1.3-0.9,2c-2.1,1.1-5.1,1.8-6.9,0.1c-0.3,0.1-0.2,0.3-0.5,0.4
		c-1.6-0.8-3-3.3-3.1-5.4c-0.5-0.1-0.7,0.3-1.4,0.4c-1.2-0.5-1.8-0.5-2.8-1.2c-3.8-4.7,2.2-9,5.3-6c0.6-2.7,3.9-5.3,6.9-4.2
		c0.2-3.1,1.6-6.3,5.8-6.8c0.6,0.3,1.2,0.5,1.9,0.6c0.5-0.7,0.7-1.5,1.8-2c0.7-0.9-0.2-1.8-0.1-2.6c0.2-2,2.5-3.5,4.1-4.8
		c3.1-0.2,5.8-0.3,8.6,1.9c0.6-0.4,0.9-1,0.9-1.6c1.8-2.2,5.2-3,7.7-3.2c0.9,0.8,2.3,0.8,3.2,2c1.2,1.6,1.1,3.8,0.6,5.4
		c0.1,0.2,0.3,0.5,0.1,0.7c0.3,0.5,0.4,1.3,0.8,1.4c0.3,0.4-0.4,0.4,0,0.9c5.2-0.9,10.5-2.9,14.3,0c0.6-0.5,0.7,0.1,1.1,0.1
		C169.4,12,167.9,12.5,166.7,12.2z M165.8,10.1c0.4,0.8,1.1,0.9,1.8,1c-0.1-0.2-0.1-0.3-0.2-0.4C166.9,10.7,166.5,9.9,165.8,10.1z
		 M158.1,24.5c0-0.9,0.6-1.6,1.1-2.4c-0.3-2.6-1.8-4.5-3.7-5.1c-1.7,0.4-1.9,1.5-3.3,2.3c-1.5,0.9-2.8,1.1-4.6,1.3
		C146.4,25.7,154.1,28.6,158.1,24.5z M149.1,1.4C148,1,144.5,1.7,143.1,3c-1.8,1.6-2.5,4.9-0.2,6.5c1.6-1.9,5.5-2.9,7.2-1.9
		C152,5.6,151.6,2.3,149.1,1.4z M149.4,8.6c-0.5,0.8-0.9-0.2-1.5-0.1c-5,0-5.8,4.8-4.4,7.9c0.8,1.7,3.3,3.1,4.7,2.7
		c1.6-0.4,4.5-2.8,4.8-4.4c0.2-1.3-0.7-2.3-1-3.5C151.4,10,150.5,9.1,149.4,8.6z M149.6,26.9c-1.1-0.3-1.8-1.6-2.7-2.5
		c-0.6,1.9-4.3,2.9-6.2,2.1C138.1,32.1,150.1,32.7,149.6,26.9z M141.2,10.5c0.2-0.1,0.6-0.2,0.5-0.4c-2-1.2-3.8-2.6-6.1-0.9
		c-1.9,1.4-1.5,6.2,0.7,7.8c0.7,0.5,1.2-0.2,1.4,0.4c1-0.6,2.8-1.4,3.3-2.5c0.7-0.2,0.5,0.9,1,0.6c-1-2.1-0.2-3.5-0.1-5.1
		C141.8,10.5,141.4,10.7,141.2,10.5z M146.4,20.3c-1.5-1.3-2.9-1.4-4-3.4c-4.7,0.4-5.8,5-2.4,8.3c1.7,0.6,4.6,0.6,5.8-1.3
		c0-0.5-0.5-0.7-0.2-1.2c0.4-0.3,0.4,0.2,0.7,0C146,21.8,146.3,21.1,146.4,20.3z M139.2,6.3c0.5,0.6,0.1,0.9,0.2,1.3
		C140.3,7.4,140.1,5.8,139.2,6.3z M129.3,9.3c1.7-0.5,3.2-0.2,4.4,0.7c0-1.8,3.1-2.2,3.9-3.3C135.3,2.9,128.5,4.3,129.3,9.3z
		 M136.7,22.1c-0.3-1.1,0.3-2.1-0.2-2.9c-0.5-0.5,0.3,0.6-0.1,0.6c-0.5,0.1-1,0.1-1.1-0.6c-0.8-0.1-2,0.6-2.8,0.5
		c-0.4,1-1.4,1.3-1.7,2.2c-1.4,3.8,4.2,7.5,7,6c0.5-0.6,0.9-1.2,1.5-1.7C138.1,25.2,137.1,23.6,136.7,22.1z M131.3,10.6
		c-5.7,0-4.6,8-0.8,9.2c0.3-0.1,0.7-0.8,1-1.3c0.9,0,2.4-0.3,3.2-1.2c-1.2-1.9-1.8-4-1.7-6C132.2,11.7,131.9,11.1,131.3,10.6z
		 M142,31.8c-1.5-0.2-2.8-0.8-4.1-1.6c0.2,0.4-0.1,0.5-0.4,0.7c0.9,1.8-0.7,2.5-0.8,3.9C138.5,36.1,142.5,35.1,142,31.8z
		 M135.8,30.2c-3.1-2.1-10.4-0.1-7.6,5.3c2.6,1.7,7.9-0.5,8.3-3.6C136.3,31.3,136,30.8,135.8,30.2z M126.5,18
		c-0.3-0.8-0.3-2.9-0.6-3.5c-0.3-0.7-1.5-0.7-1.9-1.5c-4.8,0.4-5.6,5.3-2.2,8c0,0.6-1.2,0-0.9,0.8c2.2-1.9,6.2,0.1,6.3-3.1
		C127,18.4,126.7,18.5,126.5,18z M128.6,29.1c0.5-0.6,1.4-0.7,2.1-0.9C129.8,26.5,128.3,27.7,128.6,29.1z M119.1,27
		c0.2,0.4,1.9,1.5,3,1.7c2.5,0.5,6.4-1.4,6.2-3.2c-1.3-4.3-4.3-4-7.5-2.6C120.6,24.7,118,25,119.1,27z M122.2,30.3
		c0.1,0.8,1,1.5,1.2,2.3c0.8,0.3,1.7,0.3,2.6,0.3c0.3-1.2,1.1-2.8,2.1-3.2c-0.4-0.3,0-0.9-0.3-0.7C126.6,30.7,123.8,30.2,122.2,30.3
		z M119.5,22.6c0.4-1.8-2-2-3-3.1c-3.3,0.2-4.4,3-3,5.2c0.4,0.6,1.2,0.7,1.4,1.5c0.9-0.2,1.6,0.4,2.5,0.1
		C118.3,25.2,118,23.5,119.5,22.6z M118,27.3c-1.4,0.6-2.7-0.6-3.7,0c0.2,0.4-0.9,0.7-1.4,1.2c-0.3,1.2-0.7,2.8-0.1,3.9
		c1.3,2.5,7,2,7.1-1.1c0.2-0.1,0.4-0.1,0.5,0c-0.1-0.7,0.3-1.1,0.1-1.8C119.5,29.2,118.7,28.5,118,27.3z M111.5,24.1
		c-0.4,0.2-0.5-0.4-1,0.1c-0.2-0.9-1-0.5-1.3-1c-1.9,0.4-3.5,1-3.1,2.7c0.4,1.7,2.5,3.5,3.8,2.2c0.1,0.2,0.2,0.5,0.5,0.3
		c0.6-1,1.4-1.9,2.8-2.6C112.6,25.3,111.9,25,111.5,24.1z"/>

</svg>
